<?xml version="1.0" encoding="UTF-8" standalone="no"?>
<!-- Created with Inkscape (http://www.inkscape.org/) -->

<svg
   xmlns:osb="http://www.openswatchbook.org/uri/2009/osb"
   xmlns:dc="http://purl.org/dc/elements/1.1/"
   xmlns:cc="http://creativecommons.org/ns#"
   xmlns:rdf="http://www.w3.org/1999/02/22-rdf-syntax-ns#"
   xmlns:svg="http://www.w3.org/2000/svg"
   xmlns="http://www.w3.org/2000/svg"
   xmlns:sodipodi="http://sodipodi.sourceforge.net/DTD/sodipodi-0.dtd"
   xmlns:inkscape="http://www.inkscape.org/namespaces/inkscape"
   id="svg2"
   version="1.1"
   inkscape:version="0.48.5 r10040"
   width="1252.3483"
   height="554.40289"
   xml:space="preserve"
   sodipodi:docname="phases2.svg"><metadata
     id="metadata8"><rdf:RDF><cc:Work
         rdf:about=""><dc:format>image/svg+xml</dc:format><dc:type
           rdf:resource="http://purl.org/dc/dcmitype/StillImage" /><dc:title /></cc:Work></rdf:RDF></metadata><defs
     id="defs6"><marker
       inkscape:stockid="Arrow1Lend"
       orient="auto"
       refY="0"
       refX="0"
       id="Arrow1Lend"
       style="overflow:visible"><path
         id="path4044"
         d="M 0,0 5,-5 -12.5,0 5,5 0,0 z"
         style="fill-rule:evenodd;stroke:#000000;stroke-width:1pt"
         transform="matrix(-0.8,0,0,-0.8,-10,0)"
         inkscape:connector-curvature="0" /></marker><marker
       inkscape:stockid="Arrow1Lstart"
       orient="auto"
       refY="0"
       refX="0"
       id="Arrow1Lstart"
       style="overflow:visible"><path
         id="path4041"
         d="M 0,0 5,-5 -12.5,0 5,5 0,0 z"
         style="fill-rule:evenodd;stroke:#000000;stroke-width:1pt"
         transform="matrix(0.8,0,0,0.8,10,0)"
         inkscape:connector-curvature="0" /></marker><linearGradient
       id="linearGradient3937"
       osb:paint="solid"><stop
         style="stop-color:#000000;stop-opacity:1;"
         offset="0"
         id="stop3939" /></linearGradient><marker
       inkscape:stockid="Arrow1Lend"
       orient="auto"
       refY="0"
       refX="0"
       id="Arrow1Lend-3"
       style="overflow:visible"><path
         inkscape:connector-curvature="0"
         id="path4044-8"
         d="M 0,0 5,-5 -12.5,0 5,5 0,0 z"
         style="fill-rule:evenodd;stroke:#000000;stroke-width:1pt"
         transform="matrix(-0.8,0,0,-0.8,-10,0)" /></marker><marker
       inkscape:stockid="Arrow1Lend"
       orient="auto"
       refY="0"
       refX="0"
       id="Arrow1Lend-0"
       style="overflow:visible"><path
         inkscape:connector-curvature="0"
         id="path4044-9"
         d="M 0,0 5,-5 -12.5,0 5,5 0,0 z"
         style="fill-rule:evenodd;stroke:#000000;stroke-width:1pt"
         transform="matrix(-0.8,0,0,-0.8,-10,0)" /></marker><marker
       inkscape:stockid="Arrow1Lend"
       orient="auto"
       refY="0"
       refX="0"
       id="Arrow1Lend-2"
       style="overflow:visible"><path
         inkscape:connector-curvature="0"
         id="path4044-5"
         d="M 0,0 5,-5 -12.5,0 5,5 0,0 z"
         style="fill-rule:evenodd;stroke:#000000;stroke-width:1pt"
         transform="matrix(-0.8,0,0,-0.8,-10,0)" /></marker></defs><sodipodi:namedview
     pagecolor="#ffffff"
     bordercolor="#666666"
     borderopacity="1"
     objecttolerance="10"
     gridtolerance="10"
     guidetolerance="10"
     inkscape:pageopacity="0"
     inkscape:pageshadow="2"
     inkscape:window-width="1440"
     inkscape:window-height="876"
     id="namedview4"
     showgrid="true"
     inkscape:zoom="0.5209501"
     inkscape:cx="539.00995"
     inkscape:cy="55.202616"
     inkscape:window-x="1280"
     inkscape:window-y="24"
     inkscape:window-maximized="1"
     inkscape:current-layer="g12"
     fit-margin-top="5"
     fit-margin-left="10"
     fit-margin-right="10"
     fit-margin-bottom="5"><inkscape:grid
       type="xygrid"
       id="grid4941"
       empspacing="5"
       visible="true"
       enabled="true"
       snapvisiblegridlinesonly="true"
       originx="112.42063px"
       originy="39.205975px" /></sodipodi:namedview><g
     id="g10"
     inkscape:groupmode="layer"
     inkscape:label="phases2"
     transform="matrix(1.25,0,0,-1.25,112.42063,515.19702)"><g
       id="g12"><path
         d="m 27.927978,282.68698 c 0,-9.941 -12.09,-18 -27,-18 -14.91,0 -27,8.059 -27,18 0,9.941 12.09,18 27,18 14.91,0 27,-8.059 27,-18"
         style="fill:#ffa500;fill-opacity:1;fill-rule:nonzero;stroke:#000000;stroke-width:1;stroke-linecap:butt;stroke-linejoin:round;stroke-miterlimit:10;stroke-opacity:1;stroke-dasharray:none"
         id="path16"
         inkscape:connector-curvature="0" /><text
         transform="scale(1,-1)"
         id="text18"
         x="-8.0720215"
         y="-278.98776"><tspan
           style="font-size:14.00024414px;font-variant:normal;writing-mode:lr-tb;fill:#000000;fill-opacity:1;fill-rule:nonzero;stroke:none;font-family:Nimbus Roman No9 L;-inkscape-font-specification:NimbusRomNo9L-Regu"
           x="-8.0720215 -4.3199577 2.4281616"
           y="-278.98776"
           sodipodi:role="line"
           id="tspan20">t01</tspan></text>
<path
         d="m -8.072022,210.68698 c 0,-9.941 -12.09,-18 -27,-18 -14.91,0 -27,8.059 -27,18 0,9.941 12.09,18 27,18 14.91,0 27,-8.059 27,-18"
         style="fill:#ffc0cb;fill-opacity:1;fill-rule:nonzero;stroke:#000000;stroke-width:1;stroke-linecap:butt;stroke-linejoin:round;stroke-miterlimit:10;stroke-opacity:1;stroke-dasharray:none"
         id="path22"
         inkscape:connector-curvature="0" /><text
         transform="scale(1,-1)"
         id="text24"
         x="-44.072021"
         y="-206.98776"><tspan
           style="font-size:14.00024414px;font-variant:normal;writing-mode:lr-tb;fill:#000000;fill-opacity:1;fill-rule:nonzero;stroke:none;font-family:Nimbus Roman No9 L;-inkscape-font-specification:NimbusRomNo9L-Regu"
           x="-44.072021 -40.319958 -33.571838"
           y="-206.98776"
           sodipodi:role="line"
           id="tspan26">t02</tspan></text>
<path
         d="m -7.424022,265.45298 c -4.359,-8.485 -9.796,-19.051 -14.691,-28.567"
         style="fill:none;stroke:#000000;stroke-width:1;stroke-linecap:butt;stroke-linejoin:round;stroke-miterlimit:10;stroke-opacity:1;stroke-dasharray:none"
         id="path28"
         inkscape:connector-curvature="0" /><path
         d="m -19.080022,235.12798 -7.687,-7.293 1.461,10.493 6.226,-3.2 z"
         style="fill:#000000;fill-opacity:1;fill-rule:nonzero;stroke:#000000;stroke-width:1;stroke-linecap:butt;stroke-linejoin:round;stroke-miterlimit:10;stroke-opacity:1;stroke-dasharray:none"
         id="path30"
         inkscape:connector-curvature="0" /><path
         d="m 63.927978,210.68698 c 0,-9.941 -12.09,-18 -27,-18 -14.91,0 -27,8.059 -27,18 0,9.941 12.09,18 27,18 14.91,0 27,-8.059 27,-18"
         style="fill:#ffffff;fill-opacity:1;fill-rule:nonzero;stroke:#000000;stroke-width:1;stroke-linecap:butt;stroke-linejoin:round;stroke-miterlimit:10;stroke-opacity:1;stroke-dasharray:none"
         id="path32"
         inkscape:connector-curvature="0" /><path
         d="m 9.279978,265.45298 c 4.359,-8.485 9.796,-19.051 14.691,-28.567"
         style="fill:none;stroke:#000000;stroke-width:1;stroke-linecap:butt;stroke-linejoin:round;stroke-miterlimit:10;stroke-opacity:1;stroke-dasharray:none"
         id="path34"
         inkscape:connector-curvature="0" /><path
         d="m 27.161978,238.32798 1.461,-10.493 -7.687,7.293 6.226,3.2 z"
         style="fill:#000000;fill-opacity:1;fill-rule:nonzero;stroke:#000000;stroke-width:1;stroke-linecap:butt;stroke-linejoin:round;stroke-miterlimit:10;stroke-opacity:1;stroke-dasharray:none"
         id="path36"
         inkscape:connector-curvature="0" /><path
         d="m 293,274 c 0,-9.941 -12.09,-18 -27,-18 -14.91,0 -27,8.059 -27,18 0,9.941 12.09,18 27,18 14.91,0 27,-8.059 27,-18"
         style="fill:#ffc0cb;fill-opacity:1;fill-rule:nonzero;stroke:#000000;stroke-width:1;stroke-linecap:butt;stroke-linejoin:round;stroke-miterlimit:10;stroke-opacity:1;stroke-dasharray:none"
         id="path38"
         inkscape:connector-curvature="0" /><text
         transform="matrix(1,0,0,-1,257,270.30078)"
         id="text40"><tspan
           style="font-size:14.00024414px;font-variant:normal;writing-mode:lr-tb;fill:#000000;fill-opacity:1;fill-rule:nonzero;stroke:none;font-family:Nimbus Roman No9 L;-inkscape-font-specification:NimbusRomNo9L-Regu"
           x="0 3.7520654 10.500183"
           y="0"
           sodipodi:role="line"
           id="tspan42">t04</tspan></text>
<path
         d="m 348,202 c 0,-9.941 -12.09,-18 -27,-18 -14.91,0 -27,8.059 -27,18 0,9.941 12.09,18 27,18 14.91,0 27,-8.059 27,-18"
         style="fill:#ffc0cb;fill-opacity:1;fill-rule:nonzero;stroke:#000000;stroke-width:1;stroke-linecap:butt;stroke-linejoin:round;stroke-miterlimit:10;stroke-opacity:1;stroke-dasharray:none"
         id="path44"
         inkscape:connector-curvature="0" /><text
         transform="matrix(1,0,0,-1,312,198.30078)"
         id="text46"><tspan
           style="font-size:14.00024414px;font-variant:normal;writing-mode:lr-tb;fill:#000000;fill-opacity:1;fill-rule:nonzero;stroke:none;font-family:Nimbus Roman No9 L;-inkscape-font-specification:NimbusRomNo9L-Regu"
           x="0 3.7520654 10.500183"
           y="0"
           sodipodi:role="line"
           id="tspan48">t05</tspan></text>
<path
         d="m 277.934,257.812 c 7.281,-9.265 16.73,-21.292 24.921,-31.718"
         style="fill:none;stroke:#000000;stroke-width:1;stroke-linecap:butt;stroke-linejoin:round;stroke-miterlimit:10;stroke-opacity:1;stroke-dasharray:none"
         id="path50"
         inkscape:connector-curvature="0" /><path
         d="m 305.664,228.184 3.426,-10.024 -8.93,5.699 5.504,4.325 z"
         style="fill:#000000;fill-opacity:1;fill-rule:nonzero;stroke:#000000;stroke-width:1;stroke-linecap:butt;stroke-linejoin:round;stroke-miterlimit:10;stroke-opacity:1;stroke-dasharray:none"
         id="path52"
         inkscape:connector-curvature="0" /><path
         d="m 538.36011,278.34349 c 0,-9.941 -12.09,-18 -27,-18 -14.91,0 -27,8.059 -27,18 0,9.941 12.09,18 27,18 14.91,0 27,-8.059 27,-18"
         style="fill:#ffc0cb;fill-opacity:1;fill-rule:nonzero;stroke:#000000;stroke-width:1;stroke-linecap:butt;stroke-linejoin:round;stroke-miterlimit:10;stroke-opacity:1;stroke-dasharray:none"
         id="path54"
         inkscape:connector-curvature="0" /><text
         transform="scale(1,-1)"
         id="text56"
         x="502.36011"
         y="-274.64426"><tspan
           style="font-size:14.00024414px;font-variant:normal;writing-mode:lr-tb;fill:#000000;fill-opacity:1;fill-rule:nonzero;stroke:none;font-family:Nimbus Roman No9 L;-inkscape-font-specification:NimbusRomNo9L-Regu"
           x="502.36011 506.11218 512.86029"
           y="-274.64426"
           sodipodi:role="line"
           id="tspan58">t_k</tspan></text>
<path
         d="m 619.63311,206.34349 c 0,-9.941 -14,-18 -31.273,-18 -17.273,0 -31.273,8.059 -31.273,18 0,9.941 14,18 31.273,18 17.273,0 31.273,-8.059 31.273,-18"
         style="fill:#ffc0cb;fill-opacity:1;fill-rule:nonzero;stroke:#000000;stroke-width:1;stroke-linecap:butt;stroke-linejoin:round;stroke-miterlimit:10;stroke-opacity:1;stroke-dasharray:none"
         id="path60"
         inkscape:connector-curvature="0" /><text
         transform="scale(1,-1)"
         id="text62"
         x="571.86011"
         y="-202.64427"><tspan
           style="font-size:14.00024414px;font-variant:normal;writing-mode:lr-tb;fill:#000000;fill-opacity:1;fill-rule:nonzero;stroke:none;font-family:Nimbus Roman No9 L;-inkscape-font-specification:NimbusRomNo9L-Regu"
           x="571.86011 575.61218 582.36029 589.1084 597.36853"
           y="-202.64427"
           sodipodi:role="line"
           id="tspan64">t_k+1</tspan></text>
<path
         d="m 526.94211,263.17949 c 10.816,-9.832 25.422,-23.113 37.68,-34.254"
         style="fill:none;stroke:#000000;stroke-width:1;stroke-linecap:butt;stroke-linejoin:round;stroke-miterlimit:10;stroke-opacity:1;stroke-dasharray:none"
         id="path66"
         inkscape:connector-curvature="0" /><path
         d="m 567.22711,231.28449 5.043,-9.316 -9.754,4.137 4.711,5.179 z"
         style="fill:#000000;fill-opacity:1;fill-rule:nonzero;stroke:#000000;stroke-width:1;stroke-linecap:butt;stroke-linejoin:round;stroke-miterlimit:10;stroke-opacity:1;stroke-dasharray:none"
         id="path68"
         inkscape:connector-curvature="0" /><path
         d="m 538.36011,206.34349 c 0,-9.941 -12.09,-18 -27,-18 -14.91,0 -27,8.059 -27,18 0,9.941 12.09,18 27,18 14.91,0 27,-8.059 27,-18"
         style="fill:#ffffff;fill-opacity:1;fill-rule:nonzero;stroke:#000000;stroke-width:1;stroke-linecap:butt;stroke-linejoin:round;stroke-miterlimit:10;stroke-opacity:1;stroke-dasharray:none"
         id="path70"
         inkscape:connector-curvature="0" /><path
         d="m 511.36011,260.03849 c 0,-7.711 0,-16.984 0,-25.582"
         style="fill:none;stroke:#000000;stroke-width:1;stroke-linecap:butt;stroke-linejoin:round;stroke-miterlimit:10;stroke-opacity:1;stroke-dasharray:none"
         id="path72"
         inkscape:connector-curvature="0" /><path
         d="m 514.86011,234.44849 -3.5,-10 -3.5,10 7,0 z"
         style="fill:#000000;fill-opacity:1;fill-rule:nonzero;stroke:#000000;stroke-width:1;stroke-linecap:butt;stroke-linejoin:round;stroke-miterlimit:10;stroke-opacity:1;stroke-dasharray:none"
         id="path74"
         inkscape:connector-curvature="0" /><path
         d="m 817.37117,281.60111 c 0,-9.941 -12.09,-18 -27,-18 -14.91,0 -27,8.059 -27,18 0,9.941 12.09,18 27,18 14.91,0 27,-8.059 27,-18"
         style="fill:#ffc0cb;fill-opacity:1;fill-rule:nonzero;stroke:#000000;stroke-width:1;stroke-linecap:butt;stroke-linejoin:round;stroke-miterlimit:10;stroke-opacity:1;stroke-dasharray:none"
         id="path76"
         inkscape:connector-curvature="0" /><text
         transform="scale(1,-1)"
         id="text78"
         x="781.37115"
         y="-277.90189"><tspan
           style="font-size:14.00024414px;font-variant:normal;writing-mode:lr-tb;fill:#000000;fill-opacity:1;fill-rule:nonzero;stroke:none;font-family:Nimbus Roman No9 L;-inkscape-font-specification:NimbusRomNo9L-Regu"
           x="781.37115 785.12323 791.8714"
           y="-277.90189"
           sodipodi:role="line"
           id="tspan80">t_n</tspan></text>
<path
         d="m 887.64417,209.60111 c 0,-9.941 -14,-18 -31.273,-18 -17.273,0 -31.273,8.059 -31.273,18 0,9.941 14,18 31.273,18 17.273,0 31.273,-8.059 31.273,-18"
         style="fill:#ffc0cb;fill-opacity:1;fill-rule:nonzero;stroke:#000000;stroke-width:1;stroke-linecap:butt;stroke-linejoin:round;stroke-miterlimit:10;stroke-opacity:1;stroke-dasharray:none"
         id="path82"
         inkscape:connector-curvature="0" /><text
         transform="scale(1,-1)"
         id="text84"
         x="839.87115"
         y="-205.90189"><tspan
           style="font-size:14.00024414px;font-variant:normal;writing-mode:lr-tb;fill:#000000;fill-opacity:1;fill-rule:nonzero;stroke:none;font-family:Nimbus Roman No9 L;-inkscape-font-specification:NimbusRomNo9L-Regu"
           x="839.87115 843.62323 850.3714 857.11945 865.37958"
           y="-205.90189"
           sodipodi:role="line"
           id="tspan86">t_n+1</tspan></text>
<path
         d="m 804.36717,265.75711 c 8.891,-9.429 20.574,-21.82 30.613,-32.468"
         style="fill:none;stroke:#000000;stroke-width:1;stroke-linecap:butt;stroke-linejoin:round;stroke-miterlimit:10;stroke-opacity:1;stroke-dasharray:none"
         id="path88"
         inkscape:connector-curvature="0" /><path
         d="m 837.62517,235.58511 4.312,-9.675 -9.406,4.875 5.094,4.8 z"
         style="fill:#000000;fill-opacity:1;fill-rule:nonzero;stroke:#000000;stroke-width:1;stroke-linecap:butt;stroke-linejoin:round;stroke-miterlimit:10;stroke-opacity:1;stroke-dasharray:none"
         id="path90"
         inkscape:connector-curvature="0" /><path
         d="m 82.927973,138.68698 c 0,-9.941 -12.089995,-18 -26.999995,-18 -14.91,0 -27,8.059 -27,18 0,9.941 12.09,18 27,18 14.91,0 26.999995,-8.059 26.999995,-18"
         style="fill:#ffc0cb;fill-opacity:1;fill-rule:nonzero;stroke:#000000;stroke-width:1;stroke-linecap:butt;stroke-linejoin:round;stroke-miterlimit:10;stroke-opacity:1;stroke-dasharray:none"
         id="path92"
         inkscape:connector-curvature="0" /><text
         transform="scale(1,-1)"
         id="text94"
         x="46.927982"
         y="-134.98776"><tspan
           style="font-size:14.00024414px;font-variant:normal;writing-mode:lr-tb;fill:#000000;fill-opacity:1;fill-rule:nonzero;stroke:none;font-family:Nimbus Roman No9 L;-inkscape-font-specification:NimbusRomNo9L-Regu"
           x="46.927982 50.680042 57.428165"
           y="-134.98776"
           sodipodi:role="line"
           id="tspan96">t03</tspan></text>
<path
         d="m -17.955022,196.51898 c 13.727,-10.559 33.192,-25.531 48.699,-37.461"
         style="fill:none;stroke:#000000;stroke-width:1;stroke-linecap:butt;stroke-linejoin:round;stroke-miterlimit:10;stroke-opacity:1;stroke-dasharray:none"
         id="path98"
         inkscape:connector-curvature="0" /><path
         d="m 33.095978,161.66698 5.793,-8.871 -10.063,3.321 4.27,5.55 z"
         style="fill:#000000;fill-opacity:1;fill-rule:nonzero;stroke:#000000;stroke-width:1;stroke-linecap:butt;stroke-linejoin:round;stroke-miterlimit:10;stroke-opacity:1;stroke-dasharray:none"
         id="path100"
         inkscape:connector-curvature="0" /><path
         d="m 473.11228,268.48848 11.68473,4.41535 -5.75239,-9.38398 -5.93234,4.96863 z"
         style="fill:#000000;fill-opacity:1;fill-rule:nonzero;stroke:#000000;stroke-width:1.09701884;stroke-linecap:butt;stroke-linejoin:round;stroke-miterlimit:10;stroke-opacity:1;stroke-dasharray:none"
         id="path104"
         inkscape:connector-curvature="0" /><path
         d="m 348,58 c 0,-9.941 -12.09,-18 -27,-18 -14.91,0 -27,8.059 -27,18 0,9.941 12.09,18 27,18 14.91,0 27,-8.059 27,-18"
         style="fill:#ffffff;fill-opacity:1;fill-rule:nonzero;stroke:#000000;stroke-width:1;stroke-linecap:butt;stroke-linejoin:round;stroke-miterlimit:10;stroke-opacity:1;stroke-dasharray:none"
         id="path106"
         inkscape:connector-curvature="0" /><path
         d="m 321,183.871 c 0,-24.199 0,-68.66 0,-97.476"
         style="fill:none;stroke:#000000;stroke-width:1;stroke-linecap:butt;stroke-linejoin:round;stroke-miterlimit:10;stroke-opacity:1;stroke-dasharray:none"
         id="path108"
         inkscape:connector-curvature="0" /><path
         d="m 324.5,86.188 -3.5,-10 -3.5,10 7,0 z"
         style="fill:#000000;fill-opacity:1;fill-rule:nonzero;stroke:#000000;stroke-width:1;stroke-linecap:butt;stroke-linejoin:round;stroke-miterlimit:10;stroke-opacity:1;stroke-dasharray:none"
         id="path110"
         inkscape:connector-curvature="0" /><path
         d="m 619.63311,134.34349 c 0,-9.941 -14,-18 -31.273,-18 -17.273,0 -31.273,8.059 -31.273,18 0,9.941 14,18 31.273,18 17.273,0 31.273,-8.059 31.273,-18"
         style="fill:#ffc0cb;fill-opacity:1;fill-rule:nonzero;stroke:#000000;stroke-width:1;stroke-linecap:butt;stroke-linejoin:round;stroke-miterlimit:10;stroke-opacity:1;stroke-dasharray:none"
         id="path112"
         inkscape:connector-curvature="0" /><text
         transform="scale(1,-1)"
         id="text114"
         x="571.86011"
         y="-130.64427"><tspan
           style="font-size:14.00024414px;font-variant:normal;writing-mode:lr-tb;fill:#000000;fill-opacity:1;fill-rule:nonzero;stroke:none;font-family:Nimbus Roman No9 L;-inkscape-font-specification:NimbusRomNo9L-Regu"
           x="571.86011 575.61218 582.36029 589.1084 597.36853"
           y="-130.64427"
           sodipodi:role="line"
           id="tspan116">t_k+2</tspan></text>
<path
         d="m 588.36011,188.03849 c 0,-7.711 0,-16.984 0,-25.582"
         style="fill:none;stroke:#000000;stroke-width:1;stroke-linecap:butt;stroke-linejoin:round;stroke-miterlimit:10;stroke-opacity:1;stroke-dasharray:none"
         id="path118"
         inkscape:connector-curvature="0" /><path
         d="m 591.86011,162.44849 -3.5,-10 -3.5,10 7,0 z"
         style="fill:#000000;fill-opacity:1;fill-rule:nonzero;stroke:#000000;stroke-width:1;stroke-linecap:butt;stroke-linejoin:round;stroke-miterlimit:10;stroke-opacity:1;stroke-dasharray:none"
         id="path120"
         inkscape:connector-curvature="0" /><path
         d="m 806.37117,209.60111 c 0,-9.941 -12.09,-18 -27,-18 -14.91,0 -27,8.059 -27,18 0,9.941 12.09,18 27,18 14.91,0 27,-8.059 27,-18"
         style="fill:#ffffff;fill-opacity:1;fill-rule:nonzero;stroke:#000000;stroke-width:1;stroke-linecap:butt;stroke-linejoin:round;stroke-miterlimit:10;stroke-opacity:1;stroke-dasharray:none"
         id="path122"
         inkscape:connector-curvature="0" /><path
         d="m 819.64417,137.60111 c 0,-9.941 -14,-18 -31.273,-18 -17.273,0 -31.273,8.059 -31.273,18 0,9.941 14,18 31.273,18 17.273,0 31.273,-8.059 31.273,-18"
         style="fill:#add8e6;fill-opacity:1;fill-rule:nonzero;stroke:#000000;stroke-width:1;stroke-linecap:butt;stroke-linejoin:round;stroke-miterlimit:10;stroke-opacity:1;stroke-dasharray:none"
         id="path124"
         inkscape:connector-curvature="0" /><text
         transform="scale(1,-1)"
         id="text126"
         x="771.87115"
         y="-133.90189"><tspan
           style="font-size:14.00024414px;font-variant:normal;writing-mode:lr-tb;fill:#000000;fill-opacity:1;fill-rule:nonzero;stroke:none;font-family:Nimbus Roman No9 L;-inkscape-font-specification:NimbusRomNo9L-Regu"
           x="771.87115 775.62323 782.3714 789.11945 797.37958"
           y="-133.90189"
           sodipodi:role="line"
           id="tspan128">t_n+2</tspan></text>
<path
         d="m 781.55117,191.65611 c 0.988,-7.711 2.187,-17.028 3.3,-25.692"
         style="fill:none;stroke:#000000;stroke-width:1;stroke-linecap:butt;stroke-linejoin:round;stroke-miterlimit:10;stroke-opacity:1;stroke-dasharray:none"
         id="path130"
         inkscape:connector-curvature="0" /><path
         d="m 788.34817,166.24211 -2.2,-10.368 -4.746,9.473 6.946,0.895 z"
         style="fill:#000000;fill-opacity:1;fill-rule:nonzero;stroke:#000000;stroke-width:1;stroke-linecap:butt;stroke-linejoin:round;stroke-miterlimit:10;stroke-opacity:1;stroke-dasharray:none"
         id="path132"
         inkscape:connector-curvature="0" /><path
         d="m 214.11081,220.45984 c 0,-9.941 -12.09,-18 -27,-18 -14.91,0 -27,8.059 -27,18 0,9.941 12.09,18 27,18 14.91,0 27,-8.059 27,-18"
         style="fill:#ffffff;fill-opacity:1;fill-rule:nonzero;stroke:#000000;stroke-width:1;stroke-linecap:butt;stroke-linejoin:round;stroke-miterlimit:10;stroke-opacity:1;stroke-dasharray:none"
         id="path134"
         inkscape:connector-curvature="0" /><path
         d="m 212.05127,230.1046 c 7.278,9.258 16.723,21.281 24.918,31.711"
         style="fill:none;stroke:#000000;stroke-width:1;stroke-linecap:butt;stroke-linejoin:round;stroke-miterlimit:10;stroke-opacity:1;stroke-dasharray:none"
         id="path136"
         inkscape:connector-curvature="0" /><path
         d="m 233.1924,262.96773 8.929,5.703 -3.425,-10.027 -5.504,4.324 z"
         style="fill:#000000;fill-opacity:1;fill-rule:nonzero;stroke:#000000;stroke-width:1;stroke-linecap:butt;stroke-linejoin:round;stroke-miterlimit:10;stroke-opacity:1;stroke-dasharray:none"
         id="path138"
         inkscape:connector-curvature="0" /><path
         d="m 538.36011,62.34349 c 0,-9.941 -12.09,-18 -27,-18 -14.91,0 -27,8.059 -27,18 0,9.941 12.09,18 27,18 14.91,0 27,-8.059 27,-18"
         style="fill:#ffffff;fill-opacity:1;fill-rule:nonzero;stroke:#000000;stroke-width:1;stroke-linecap:butt;stroke-linejoin:round;stroke-miterlimit:10;stroke-opacity:1;stroke-dasharray:none"
         id="path140"
         inkscape:connector-curvature="0" /><path
         d="m 511.36011,188.21449 c 0,-24.199 0,-68.66 0,-97.476"
         style="fill:none;stroke:#000000;stroke-width:1;stroke-linecap:butt;stroke-linejoin:round;stroke-miterlimit:10;stroke-opacity:1;stroke-dasharray:none"
         id="path142"
         inkscape:connector-curvature="0" /><path
         d="m 514.86011,90.53149 -3.5,-10 -3.5,10 7,0 z"
         style="fill:#000000;fill-opacity:1;fill-rule:nonzero;stroke:#000000;stroke-width:1;stroke-linecap:butt;stroke-linejoin:round;stroke-miterlimit:10;stroke-opacity:1;stroke-dasharray:none"
         id="path144"
         inkscape:connector-curvature="0" /><path
         d="m 526.94211,191.17949 c 10.816,-9.832 25.422,-23.113 37.68,-34.254"
         style="fill:none;stroke:#000000;stroke-width:1;stroke-linecap:butt;stroke-linejoin:round;stroke-miterlimit:10;stroke-opacity:1;stroke-dasharray:none"
         id="path146"
         inkscape:connector-curvature="0" /><path
         d="m 567.22711,159.28449 5.043,-9.316 -9.754,4.137 4.711,5.179 z"
         style="fill:#000000;fill-opacity:1;fill-rule:nonzero;stroke:#000000;stroke-width:1;stroke-linecap:butt;stroke-linejoin:round;stroke-miterlimit:10;stroke-opacity:1;stroke-dasharray:none"
         id="path148"
         inkscape:connector-curvature="0" /><path
         d="m 883.37117,65.601109 c 0,-9.941 -12.09,-18 -27,-18 -14.91,0 -27,8.059 -27,18 0,9.941 12.09,18 27,18 14.91,0 27,-8.059 27,-18"
         style="fill:#ffffff;fill-opacity:1;fill-rule:nonzero;stroke:#000000;stroke-width:1;stroke-linecap:butt;stroke-linejoin:round;stroke-miterlimit:10;stroke-opacity:1;stroke-dasharray:none"
         id="path150"
         inkscape:connector-curvature="0" /><path
         d="m 856.37117,191.47211 c 0,-24.199 0,-68.66 0,-97.476003"
         style="fill:none;stroke:#000000;stroke-width:1;stroke-linecap:butt;stroke-linejoin:round;stroke-miterlimit:10;stroke-opacity:1;stroke-dasharray:none"
         id="path152"
         inkscape:connector-curvature="0" /><path
         d="m 859.87117,93.789107 -3.5,-9.999998 -3.5,9.999998 7,0 z"
         style="fill:#000000;fill-opacity:1;fill-rule:nonzero;stroke:#000000;stroke-width:1;stroke-linecap:butt;stroke-linejoin:round;stroke-miterlimit:10;stroke-opacity:1;stroke-dasharray:none"
         id="path154"
         inkscape:connector-curvature="0" /><path
         d="m 841.61717,193.41311 c -9.18,-9.449 -21.148,-21.769 -31.41,-32.335"
         style="fill:none;stroke:#000000;stroke-width:1;stroke-linecap:butt;stroke-linejoin:round;stroke-miterlimit:10;stroke-opacity:1;stroke-dasharray:none"
         id="path156"
         inkscape:connector-curvature="0" /><path
         d="m 812.57417,158.49611 -9.476,-4.735 4.457,9.61 5.019,-4.875 z"
         style="fill:#000000;fill-opacity:1;fill-rule:nonzero;stroke:#000000;stroke-width:1;stroke-linecap:butt;stroke-linejoin:round;stroke-miterlimit:10;stroke-opacity:1;stroke-dasharray:none"
         id="path158"
         inkscape:connector-curvature="0" /><path
         d="m 82.927973,66.686981 c 0,-9.941 -12.089995,-18 -26.999995,-18 -14.91,0 -27,8.059 -27,18 0,9.941 12.09,18 27,18 14.91,0 26.999995,-8.059 26.999995,-18"
         style="fill:#ffffff;fill-opacity:1;fill-rule:nonzero;stroke:#000000;stroke-width:1;stroke-linecap:butt;stroke-linejoin:round;stroke-miterlimit:10;stroke-opacity:1;stroke-dasharray:none"
         id="path160"
         inkscape:connector-curvature="0" /><path
         d="m 84.358052,137.04784 c 44.440178,8.22471 106.675938,23.01739 141.487588,45.73309 28.03433,18.29201 37.73886,43.67817 40.77465,62.89049"
         style="fill:none;stroke:#000000;stroke-width:1.485183;stroke-linecap:butt;stroke-linejoin:round;stroke-miterlimit:10;stroke-opacity:1;stroke-dasharray:none"
         id="path162"
         inkscape:connector-curvature="0" /><path
         d="m 262.285,246.172 3.996,9.812 2.996,-10.164 -6.992,0.352 z"
         style="fill:#000000;fill-opacity:1;fill-rule:nonzero;stroke:#000000;stroke-width:1;stroke-linecap:butt;stroke-linejoin:round;stroke-miterlimit:10;stroke-opacity:1;stroke-dasharray:none"
         id="path164"
         inkscape:connector-curvature="0" /><path
         d="m 55.927978,120.38198 c 0,-7.711 0,-16.984 0,-25.581999"
         style="fill:none;stroke:#000000;stroke-width:1;stroke-linecap:butt;stroke-linejoin:round;stroke-miterlimit:10;stroke-opacity:1;stroke-dasharray:none"
         id="path166"
         inkscape:connector-curvature="0" /><path
         d="m 59.427978,94.791981 -3.5,-10 -3.5,10 7,0 z"
         style="fill:#000000;fill-opacity:1;fill-rule:nonzero;stroke:#000000;stroke-width:1;stroke-linecap:butt;stroke-linejoin:round;stroke-miterlimit:10;stroke-opacity:1;stroke-dasharray:none"
         id="path168"
         inkscape:connector-curvature="0" /><path
         d="m 602.37388,151.11126 c 40.39569,25.87324 120.16325,76.95264 166.74166,106.78107"
         style="fill:none;stroke:#000000;stroke-width:1.36354744;stroke-linecap:butt;stroke-linejoin:round;stroke-miterlimit:10;stroke-opacity:1;stroke-dasharray:none"
         id="path170"
         inkscape:connector-curvature="0" /><path
         d="m 767.87117,260.51511 9.254,5.156 -4.02,-9.8 -5.234,4.644 z"
         style="fill:#000000;fill-opacity:1;fill-rule:nonzero;stroke:#000000;stroke-width:1;stroke-linecap:butt;stroke-linejoin:round;stroke-miterlimit:10;stroke-opacity:1;stroke-dasharray:none"
         id="path172"
         inkscape:connector-curvature="0" /><path
         d="m 343.67144,210.77084 c 31.5718,13.36449 93.9152,39.74888 130.31918,55.15637"
         style="fill:none;stroke:#000000;stroke-width:0.86636925;stroke-linecap:butt;stroke-linejoin:round;stroke-miterlimit:10;stroke-opacity:1;stroke-dasharray:none"
         id="path170-8"
         inkscape:connector-curvature="0" /><rect
         style="color:#000000;fill:none;stroke:#000000;stroke-width:0.99212599;stroke-miterlimit:4;stroke-opacity:1;stroke-dasharray:none;marker:none;visibility:visible;display:inline;overflow:visible;enable-background:accumulate"
         id="rect3167"
         width="201.97231"
         height="315.98892"
         x="-81.440445"
         y="-326.84766"
         transform="scale(1,-1)" /><text
         xml:space="preserve"
         style="font-size:25.60000038px;font-style:normal;font-weight:normal;line-height:125%;letter-spacing:0px;word-spacing:0px;fill:#000000;fill-opacity:1;stroke:none;font-family:Sans"
         x="-76.011078"
         y="20.631569"
         id="text3943"
         sodipodi:linespacing="125%"
         transform="scale(1,-1)"><tspan
           sodipodi:role="line"
           id="tspan3945"
           x="-76.011078"
           y="20.631569">Vague 1</tspan></text>
<rect
         style="color:#000000;fill:none;stroke:#000000;stroke-width:0.99212599;stroke-miterlimit:4;stroke-opacity:1;stroke-dasharray:none;marker:none;visibility:visible;display:inline;overflow:visible;enable-background:accumulate"
         id="rect3167-3"
         width="201.97231"
         height="315.98892"
         x="157.45152"
         y="-326.30472"
         transform="scale(1,-1)" /><rect
         style="color:#000000;fill:none;stroke:#000000;stroke-width:0.99212599;stroke-miterlimit:4;stroke-opacity:1;stroke-dasharray:none;marker:none;visibility:visible;display:inline;overflow:visible;enable-background:accumulate"
         id="rect3167-7"
         width="201.97231"
         height="315.98892"
         x="435.43491"
         y="-327.39056"
         transform="scale(1,-1)" /><rect
         style="color:#000000;fill:none;stroke:#000000;stroke-width:0.99212599;stroke-miterlimit:4;stroke-opacity:1;stroke-dasharray:none;marker:none;visibility:visible;display:inline;overflow:visible;enable-background:accumulate"
         id="rect3167-7-1"
         width="201.97231"
         height="315.98892"
         x="701.47369"
         y="-327.39059"
         transform="scale(1,-1)" /><text
         xml:space="preserve"
         style="font-size:25.60000038px;font-style:normal;font-weight:normal;line-height:125%;letter-spacing:0px;word-spacing:0px;fill:#000000;fill-opacity:1;stroke:none;font-family:Sans"
         x="159.46553"
         y="20.953838"
         id="text3943-2"
         sodipodi:linespacing="125%"
         transform="scale(1,-1)"><tspan
           sodipodi:role="line"
           id="tspan3945-7"
           x="159.46553"
           y="20.953838">Vague 2</tspan></text>
<text
         xml:space="preserve"
         style="font-size:25.60000038px;font-style:normal;font-weight:normal;line-height:125%;letter-spacing:0px;word-spacing:0px;fill:#000000;fill-opacity:1;stroke:none;font-family:Sans"
         x="440.70651"
         y="22.039717"
         id="text3943-20"
         sodipodi:linespacing="125%"
         transform="scale(1,-1)"><tspan
           sodipodi:role="line"
           id="tspan3945-8"
           x="440.70651"
           y="22.039717">Vague k</tspan></text>
<text
         xml:space="preserve"
         style="font-size:25.60000038px;font-style:normal;font-weight:normal;line-height:125%;letter-spacing:0px;word-spacing:0px;fill:#000000;fill-opacity:1;stroke:none;font-family:Sans"
         x="705.65942"
         y="20.953844"
         id="text3943-9"
         sodipodi:linespacing="125%"
         transform="scale(1,-1)"><tspan
           sodipodi:role="line"
           id="tspan3945-0"
           x="705.65942"
           y="20.953844">Vague n</tspan></text>
<path
         style="fill:none;stroke:#000000;stroke-width:1;stroke-linecap:butt;stroke-linejoin:miter;stroke-miterlimit:4;stroke-opacity:1;stroke-dasharray:none;stroke-dashoffset:0;marker-start:none;marker-end:url(#Arrow1Lend)"
         d="M 24.432133,5.0831023 C 203.60111,-119.79224 305.40166,6.440443 305.40166,6.440443"
         id="path4035"
         inkscape:connector-curvature="0"
         transform="matrix(0.8,0,0,-0.8,0,332)" /><path
         style="fill:none;stroke:#000000;stroke-width:0.80000001;stroke-linecap:butt;stroke-linejoin:miter;stroke-miterlimit:4;stroke-opacity:1;stroke-dasharray:none;stroke-dashoffset:0;marker-start:none;marker-end:url(#Arrow1Lend)"
         d="m 611.8892,328.13374 c 143.33518,99.90028 224.77562,-1.08587 224.77562,-1.08587"
         id="path4035-5"
         inkscape:connector-curvature="0" /><path
         style="fill:none;stroke:#000000;stroke-width:0.80000001;stroke-linecap:butt;stroke-linejoin:miter;stroke-miterlimit:4;stroke-opacity:1;stroke-dasharray:none;stroke-dashoffset:0;marker-start:none;marker-end:url(#Arrow1Lend)"
         d="m 311.10249,328.13374 c 143.33519,99.90028 224.77563,-1.08587 224.77563,-1.08587"
         id="path4035-8"
         inkscape:connector-curvature="0" /><text
         xml:space="preserve"
         style="font-size:25.60000038px;font-style:normal;font-weight:normal;line-height:125%;letter-spacing:0px;word-spacing:0px;fill:#000000;fill-opacity:1;stroke:none;font-family:Sans"
         x="-45.606647"
         y="-385.48477"
         id="text4895"
         sodipodi:linespacing="125%"
         transform="scale(1,-1)"><tspan
           sodipodi:role="line"
           id="tspan4897"
           x="-45.606647"
           y="-385.48477">Écrit puis exécute</tspan></text>
<text
         xml:space="preserve"
         style="font-size:25.60000038px;font-style:normal;font-weight:normal;line-height:125%;letter-spacing:0px;word-spacing:0px;fill:#000000;fill-opacity:1;stroke:none;font-family:Sans"
         x="403.15479"
         y="-387.68262"
         id="text4895-5"
         sodipodi:linespacing="125%"
         transform="scale(1,-1)"><tspan
           sodipodi:role="line"
           id="tspan4897-5"
           x="403.15479"
           y="-387.68262">...</tspan></text>
<text
         xml:space="preserve"
         style="font-size:25.60000038px;font-style:normal;font-weight:normal;line-height:125%;letter-spacing:0px;word-spacing:0px;fill:#000000;fill-opacity:1;stroke:none;font-family:Sans"
         x="588.83899"
         y="-387.68262"
         id="text4895-4"
         sodipodi:linespacing="125%"
         transform="scale(1,-1)"><tspan
           sodipodi:role="line"
           id="tspan4897-4"
           x="588.83899"
           y="-387.68262">Écrit puis exécute</tspan></text>
</g></g></svg>